<svg xmlns="http://www.w3.org/2000/svg" viewBox="0 0 394 512" width="394" height="512">
	<path fill="#ffffff" d="M270.62 285.84L243.52 285.84Q242.21 295.51 238.98 303.86Q235.76 312.06 230.34 318.07Q224.92 324.22 217.01 327.59Q209.25 330.96 198.55 330.96Q188.74 330.96 181.41 327.88Q174.09 324.66 168.67 319.09Q163.25 313.67 159.73 306.49Q156.22 299.32 154.02 291.11Q151.82 283.06 150.8 274.71Q149.92 266.21 149.92 258.3L149.92 228.27Q149.92 220.36 150.8 212.01Q151.82 203.52 154.02 195.46Q156.22 187.4 159.73 180.22Q163.4 173.05 168.82 167.63Q174.09 162.21 181.41 159.13Q188.88 155.91 198.55 155.91Q209.25 155.91 217.01 159.57Q224.92 163.09 230.34 169.38Q235.76 175.68 238.98 184.03Q242.21 192.38 243.52 202.05L270.62 202.05Q268.87 186.82 263.3 174.22Q257.88 161.62 248.8 152.54Q239.71 143.6 227.12 138.77Q214.52 133.79 198.55 133.79Q185.22 133.79 174.53 137.6Q163.84 141.26 155.49 147.85Q146.99 154.44 140.84 163.53Q134.83 172.46 130.88 183.01Q126.78 193.55 124.72 205.13Q122.82 216.7 122.67 228.56L122.67 258.3Q122.82 270.17 124.72 281.74Q126.78 293.31 130.88 303.86Q134.83 314.4 140.84 323.34Q146.99 332.28 155.49 338.87Q163.84 345.46 174.53 349.27Q185.37 352.93 198.55 352.93Q213.93 352.93 226.38 348.1Q238.98 343.12 248.21 334.18Q257.29 325.39 263.01 313.09Q268.72 300.63 270.62 285.84Z" />
</svg>