<svg xmlns="http://www.w3.org/2000/svg" viewBox="0 0 394 512" width="394" height="512">
	<path fill="#ffffff" d="M260.22 136.72L232.54 136.72L232.54 285.11Q232.24 294.19 229.31 302.39Q226.53 310.45 221.26 316.6Q215.84 322.75 208.22 326.42Q200.6 329.93 190.94 329.93Q181.56 329.93 173.94 326.86Q166.47 323.78 161.05 318.07Q155.63 312.5 152.41 304.88Q149.33 297.27 148.89 288.33L121.36 288.33Q122.67 303.13 128.09 315.14Q133.51 327 142.6 335.35Q151.53 343.85 163.69 348.39Q175.99 352.93 190.94 352.93Q205.73 352.93 218.18 347.95Q230.78 342.82 240.01 333.74Q249.24 324.8 254.51 312.35Q259.93 299.9 260.22 285.11L260.22 136.72Z" />
</svg>